<svg width="194" height="12" viewBox="0 0 194 12" fill="none" xmlns="http://www.w3.org/2000/svg">
<path d="M1.63086 1.04688V11H0.311523V1.04688H1.63086ZM6.11133 0.5V1.25195L5.96777 3.76758H5.08594L5.09277 1.36816V0.5H6.11133ZM9.89453 1.04688H11.1729L14.4336 9.16113L17.6875 1.04688H18.9727L14.9258 11H13.9277L9.89453 1.04688ZM9.47754 1.04688H10.6055L10.79 7.11719V11H9.47754V1.04688ZM18.2549 1.04688H19.3828V11H18.0703V7.11719L18.2549 1.04688ZM31.8574 1.92871L28.5625 11H27.2158L31.0098 1.04688H31.8779L31.8574 1.92871ZM34.6191 11L31.3174 1.92871L31.2969 1.04688H32.165L35.9727 11H34.6191ZM34.4482 7.31543V8.39551H28.8564V7.31543H34.4482ZM49.7871 7.83496H51.0996C51.0312 8.46387 50.8512 9.02669 50.5596 9.52344C50.2679 10.0202 49.8555 10.4144 49.3223 10.7061C48.7891 10.9932 48.1237 11.1367 47.3262 11.1367C46.7428 11.1367 46.2119 11.0273 45.7334 10.8086C45.2594 10.5898 44.8516 10.2799 44.5098 9.87891C44.168 9.47331 43.9036 8.98796 43.7168 8.42285C43.5345 7.85319 43.4434 7.21973 43.4434 6.52246V5.53125C43.4434 4.83398 43.5345 4.2028 43.7168 3.6377C43.9036 3.06803 44.1702 2.5804 44.5166 2.1748C44.8675 1.76921 45.2891 1.45703 45.7812 1.23828C46.2734 1.01953 46.8271 0.910156 47.4424 0.910156C48.1943 0.910156 48.8301 1.05143 49.3496 1.33398C49.8691 1.61654 50.2725 2.00846 50.5596 2.50977C50.8512 3.00651 51.0312 3.58301 51.0996 4.23926H49.7871C49.7233 3.77441 49.6048 3.37565 49.4316 3.04297C49.2585 2.70573 49.0124 2.44596 48.6934 2.26367C48.3743 2.08138 47.9574 1.99023 47.4424 1.99023C47.0003 1.99023 46.6107 2.07454 46.2734 2.24316C45.9408 2.41178 45.6605 2.65104 45.4326 2.96094C45.2093 3.27083 45.0407 3.64225 44.9268 4.0752C44.8128 4.50814 44.7559 4.98893 44.7559 5.51758V6.52246C44.7559 7.01009 44.806 7.4681 44.9062 7.89648C45.0111 8.32487 45.1683 8.70085 45.3779 9.02441C45.5876 9.34798 45.8542 9.60319 46.1777 9.79004C46.5013 9.97233 46.8841 10.0635 47.3262 10.0635C47.8867 10.0635 48.3333 9.97461 48.666 9.79688C48.9987 9.61914 49.2493 9.36393 49.418 9.03125C49.5911 8.69857 49.7142 8.2998 49.7871 7.83496ZM60.0918 1.04688H61.4043V7.78027C61.4043 8.52767 61.238 9.14974 60.9053 9.64648C60.5726 10.1432 60.1305 10.5169 59.5791 10.7676C59.0322 11.0137 58.4375 11.1367 57.7949 11.1367C57.1204 11.1367 56.5098 11.0137 55.9629 10.7676C55.4206 10.5169 54.9899 10.1432 54.6709 9.64648C54.3564 9.14974 54.1992 8.52767 54.1992 7.78027V1.04688H55.5049V7.78027C55.5049 8.2998 55.6006 8.72819 55.792 9.06543C55.9834 9.40267 56.25 9.65332 56.5918 9.81738C56.9382 9.98145 57.3392 10.0635 57.7949 10.0635C58.2552 10.0635 58.6562 9.98145 58.998 9.81738C59.3444 9.65332 59.6133 9.40267 59.8047 9.06543C59.9961 8.72819 60.0918 8.2998 60.0918 7.78027V1.04688ZM70.2803 8.48438C70.2803 8.25195 70.2438 8.04688 70.1709 7.86914C70.1025 7.68685 69.9795 7.52279 69.8018 7.37695C69.6286 7.23112 69.387 7.09212 69.0771 6.95996C68.7718 6.8278 68.3844 6.69336 67.915 6.55664C67.4229 6.41081 66.9785 6.24902 66.582 6.07129C66.1855 5.889 65.846 5.68164 65.5635 5.44922C65.2809 5.2168 65.0645 4.9502 64.9141 4.64941C64.7637 4.34863 64.6885 4.00456 64.6885 3.61719C64.6885 3.22982 64.7682 2.87207 64.9277 2.54395C65.0872 2.21582 65.3151 1.93099 65.6113 1.68945C65.9121 1.44336 66.2699 1.25195 66.6846 1.11523C67.0993 0.978516 67.5618 0.910156 68.0723 0.910156C68.8197 0.910156 69.4531 1.05371 69.9727 1.34082C70.4967 1.62337 70.8955 1.99479 71.1689 2.45508C71.4424 2.91081 71.5791 3.39844 71.5791 3.91797H70.2666C70.2666 3.54427 70.1868 3.21387 70.0273 2.92676C69.8678 2.63509 69.6263 2.40723 69.3027 2.24316C68.9792 2.07454 68.569 1.99023 68.0723 1.99023C67.6029 1.99023 67.2155 2.06087 66.9102 2.20215C66.6048 2.34342 66.377 2.53483 66.2266 2.77637C66.0807 3.0179 66.0078 3.29362 66.0078 3.60352C66.0078 3.81315 66.0511 4.00456 66.1377 4.17773C66.2288 4.34635 66.3678 4.50358 66.5547 4.64941C66.7461 4.79525 66.9876 4.92969 67.2793 5.05273C67.5755 5.17578 67.9287 5.29427 68.3389 5.4082C68.904 5.56771 69.3916 5.74544 69.8018 5.94141C70.2119 6.13737 70.5492 6.3584 70.8135 6.60449C71.0824 6.84603 71.2806 7.12174 71.4082 7.43164C71.5404 7.73698 71.6064 8.08333 71.6064 8.4707C71.6064 8.8763 71.5244 9.24316 71.3604 9.57129C71.1963 9.89941 70.9616 10.1797 70.6562 10.4121C70.3509 10.6445 69.984 10.8245 69.5557 10.9521C69.1318 11.0752 68.6579 11.1367 68.1338 11.1367C67.6735 11.1367 67.2201 11.0729 66.7734 10.9453C66.3314 10.8177 65.9281 10.6263 65.5635 10.3711C65.2035 10.1159 64.9141 9.80143 64.6953 9.42773C64.4811 9.04948 64.374 8.61198 64.374 8.11523H65.6865C65.6865 8.45703 65.7526 8.75098 65.8848 8.99707C66.0169 9.23861 66.1969 9.43913 66.4248 9.59863C66.6572 9.75814 66.9193 9.87663 67.2109 9.9541C67.5072 10.027 67.8148 10.0635 68.1338 10.0635C68.5941 10.0635 68.9837 9.99967 69.3027 9.87207C69.6217 9.74447 69.8633 9.56217 70.0273 9.3252C70.196 9.08822 70.2803 8.80794 70.2803 8.48438ZM81.2891 5.32617V6.39941H75.9023V5.32617H81.2891ZM76.1074 1.04688V11H74.7881V1.04688H76.1074ZM82.4375 1.04688V11H81.125V1.04688H82.4375ZM87.6973 1.04688V11H86.3779V1.04688H87.6973ZM99.2598 5.70898V6.33789C99.2598 7.08529 99.1663 7.75521 98.9795 8.34766C98.7926 8.9401 98.5238 9.44368 98.1729 9.8584C97.8219 10.2731 97.4004 10.5898 96.9082 10.8086C96.4206 11.0273 95.8737 11.1367 95.2676 11.1367C94.6797 11.1367 94.1396 11.0273 93.6475 10.8086C93.1598 10.5898 92.736 10.2731 92.376 9.8584C92.0205 9.44368 91.7448 8.9401 91.5488 8.34766C91.3529 7.75521 91.2549 7.08529 91.2549 6.33789V5.70898C91.2549 4.96159 91.3506 4.29395 91.542 3.70605C91.738 3.11361 92.0137 2.61003 92.3691 2.19531C92.7246 1.77604 93.1462 1.45703 93.6338 1.23828C94.126 1.01953 94.666 0.910156 95.2539 0.910156C95.86 0.910156 96.4069 1.01953 96.8945 1.23828C97.3867 1.45703 97.8083 1.77604 98.1592 2.19531C98.5146 2.61003 98.7858 3.11361 98.9727 3.70605C99.1641 4.29395 99.2598 4.96159 99.2598 5.70898ZM97.9541 6.33789V5.69531C97.9541 5.10286 97.8926 4.57878 97.7695 4.12305C97.651 3.66732 97.4756 3.28451 97.2432 2.97461C97.0107 2.66471 96.7259 2.43001 96.3887 2.27051C96.056 2.111 95.6777 2.03125 95.2539 2.03125C94.8438 2.03125 94.4723 2.111 94.1396 2.27051C93.8115 2.43001 93.529 2.66471 93.292 2.97461C93.0596 3.28451 92.8796 3.66732 92.752 4.12305C92.6243 4.57878 92.5605 5.10286 92.5605 5.69531V6.33789C92.5605 6.9349 92.6243 7.46354 92.752 7.92383C92.8796 8.37956 93.0618 8.76465 93.2988 9.0791C93.5404 9.389 93.8252 9.6237 94.1533 9.7832C94.486 9.94271 94.8574 10.0225 95.2676 10.0225C95.696 10.0225 96.0765 9.94271 96.4092 9.7832C96.7419 9.6237 97.0221 9.389 97.25 9.0791C97.4824 8.76465 97.6579 8.37956 97.7764 7.92383C97.8949 7.46354 97.9541 6.9349 97.9541 6.33789ZM110.392 1.04688V11H109.065L104.055 3.32324V11H102.735V1.04688H104.055L109.086 8.74414V1.04688H110.392ZM121.896 11H119.817L119.831 9.92676H121.896C122.606 9.92676 123.199 9.77865 123.673 9.48242C124.147 9.18164 124.502 8.76237 124.739 8.22461C124.981 7.68229 125.102 7.04883 125.102 6.32422V5.71582C125.102 5.14616 125.033 4.6403 124.896 4.19824C124.76 3.75163 124.559 3.37565 124.295 3.07031C124.031 2.76042 123.707 2.52572 123.324 2.36621C122.946 2.20671 122.511 2.12695 122.019 2.12695H119.776V1.04688H122.019C122.67 1.04688 123.265 1.15625 123.803 1.375C124.34 1.58919 124.803 1.90137 125.19 2.31152C125.582 2.71712 125.883 3.20931 126.093 3.78809C126.302 4.3623 126.407 5.00944 126.407 5.72949V6.32422C126.407 7.04427 126.302 7.69368 126.093 8.27246C125.883 8.84668 125.58 9.33659 125.184 9.74219C124.792 10.1478 124.318 10.46 123.762 10.6787C123.21 10.8929 122.588 11 121.896 11ZM120.521 1.04688V11H119.202V1.04688H120.521ZM136.213 9.92676V11H130.942V9.92676H136.213ZM131.209 1.04688V11H129.89V1.04688H131.209ZM135.516 5.32617V6.39941H130.942V5.32617H135.516ZM136.145 1.04688V2.12695H130.942V1.04688H136.145ZM144.651 8.48438C144.651 8.25195 144.615 8.04688 144.542 7.86914C144.474 7.68685 144.351 7.52279 144.173 7.37695C144 7.23112 143.758 7.09212 143.448 6.95996C143.143 6.8278 142.756 6.69336 142.286 6.55664C141.794 6.41081 141.35 6.24902 140.953 6.07129C140.557 5.889 140.217 5.68164 139.935 5.44922C139.652 5.2168 139.436 4.9502 139.285 4.64941C139.135 4.34863 139.06 4.00456 139.06 3.61719C139.06 3.22982 139.139 2.87207 139.299 2.54395C139.458 2.21582 139.686 1.93099 139.982 1.68945C140.283 1.44336 140.641 1.25195 141.056 1.11523C141.47 0.978516 141.933 0.910156 142.443 0.910156C143.191 0.910156 143.824 1.05371 144.344 1.34082C144.868 1.62337 145.267 1.99479 145.54 2.45508C145.813 2.91081 145.95 3.39844 145.95 3.91797H144.638C144.638 3.54427 144.558 3.21387 144.398 2.92676C144.239 2.63509 143.997 2.40723 143.674 2.24316C143.35 2.07454 142.94 1.99023 142.443 1.99023C141.974 1.99023 141.587 2.06087 141.281 2.20215C140.976 2.34342 140.748 2.53483 140.598 2.77637C140.452 3.0179 140.379 3.29362 140.379 3.60352C140.379 3.81315 140.422 4.00456 140.509 4.17773C140.6 4.34635 140.739 4.50358 140.926 4.64941C141.117 4.79525 141.359 4.92969 141.65 5.05273C141.947 5.17578 142.3 5.29427 142.71 5.4082C143.275 5.56771 143.763 5.74544 144.173 5.94141C144.583 6.13737 144.92 6.3584 145.185 6.60449C145.453 6.84603 145.652 7.12174 145.779 7.43164C145.911 7.73698 145.978 8.08333 145.978 8.4707C145.978 8.8763 145.896 9.24316 145.731 9.57129C145.567 9.89941 145.333 10.1797 145.027 10.4121C144.722 10.6445 144.355 10.8245 143.927 10.9521C143.503 11.0752 143.029 11.1367 142.505 11.1367C142.045 11.1367 141.591 11.0729 141.145 10.9453C140.702 10.8177 140.299 10.6263 139.935 10.3711C139.575 10.1159 139.285 9.80143 139.066 9.42773C138.852 9.04948 138.745 8.61198 138.745 8.11523H140.058C140.058 8.45703 140.124 8.75098 140.256 8.99707C140.388 9.23861 140.568 9.43913 140.796 9.59863C141.028 9.75814 141.29 9.87663 141.582 9.9541C141.878 10.027 142.186 10.0635 142.505 10.0635C142.965 10.0635 143.355 9.99967 143.674 9.87207C143.993 9.74447 144.234 9.56217 144.398 9.3252C144.567 9.08822 144.651 8.80794 144.651 8.48438ZM150.574 1.04688V11H149.255V1.04688H150.574ZM161.829 6.04395V9.6875C161.706 9.86979 161.51 10.0749 161.241 10.3027C160.972 10.526 160.601 10.722 160.127 10.8906C159.658 11.0547 159.051 11.1367 158.309 11.1367C157.702 11.1367 157.144 11.0319 156.634 10.8223C156.128 10.6081 155.688 10.2982 155.314 9.89258C154.945 9.48242 154.658 8.98568 154.453 8.40234C154.253 7.81445 154.152 7.14909 154.152 6.40625V5.63379C154.152 4.89095 154.239 4.22786 154.412 3.64453C154.59 3.0612 154.85 2.56673 155.191 2.16113C155.533 1.75098 155.952 1.44108 156.449 1.23145C156.946 1.01725 157.516 0.910156 158.158 0.910156C158.919 0.910156 159.555 1.04232 160.065 1.30664C160.58 1.56641 160.981 1.92643 161.269 2.38672C161.56 2.84701 161.747 3.37109 161.829 3.95898H160.51C160.451 3.59896 160.332 3.27083 160.154 2.97461C159.981 2.67839 159.733 2.44141 159.409 2.26367C159.086 2.08138 158.669 1.99023 158.158 1.99023C157.698 1.99023 157.299 2.07454 156.962 2.24316C156.625 2.41178 156.347 2.65332 156.128 2.96777C155.909 3.28223 155.745 3.66276 155.636 4.10938C155.531 4.55599 155.479 5.05957 155.479 5.62012V6.40625C155.479 6.98047 155.545 7.49316 155.677 7.94434C155.813 8.39551 156.007 8.7806 156.258 9.09961C156.508 9.41406 156.807 9.65332 157.153 9.81738C157.504 9.98145 157.892 10.0635 158.315 10.0635C158.785 10.0635 159.165 10.0247 159.457 9.94727C159.749 9.86523 159.977 9.76953 160.141 9.66016C160.305 9.54622 160.43 9.43913 160.517 9.33887V7.11035H158.213V6.04395H161.829ZM173.173 1.04688V11H171.847L166.836 3.32324V11H165.517V1.04688H166.836L171.867 8.74414V1.04688H173.173ZM183.334 9.92676V11H178.063V9.92676H183.334ZM178.33 1.04688V11H177.011V1.04688H178.33ZM182.637 5.32617V6.39941H178.063V5.32617H182.637ZM183.266 1.04688V2.12695H178.063V1.04688H183.266ZM186.468 1.04688H189.763C190.51 1.04688 191.141 1.16081 191.656 1.38867C192.176 1.61654 192.57 1.95378 192.839 2.40039C193.112 2.84245 193.249 3.38704 193.249 4.03418C193.249 4.48991 193.156 4.9069 192.969 5.28516C192.786 5.65885 192.522 5.97786 192.176 6.24219C191.834 6.50195 191.424 6.69564 190.945 6.82324L190.576 6.9668H187.479L187.466 5.89355H189.804C190.278 5.89355 190.672 5.81152 190.986 5.64746C191.301 5.47884 191.538 5.25326 191.697 4.9707C191.857 4.68815 191.937 4.37598 191.937 4.03418C191.937 3.65137 191.861 3.31641 191.711 3.0293C191.561 2.74219 191.324 2.52116 191 2.36621C190.681 2.20671 190.269 2.12695 189.763 2.12695H187.787V11H186.468V1.04688ZM192.285 11L189.865 6.48828L191.239 6.48145L193.693 10.918V11H192.285Z" fill="#B99BB6"/>
</svg>
